<mxfile host="app.diagrams.net" modified="2024-04-16T10:10:14.821Z" agent="Mozilla/5.0 (Windows NT 10.0; Win64; x64) AppleWebKit/537.36 (KHTML, like Gecko) Chrome/123.0.0.0 Safari/537.36" etag="fTjYyS7Bz0QlwNKxaDWT" version="24.2.5" type="google">
  <diagram name="Page-1" id="2YBvvXClWsGukQMizWep">
    <mxGraphModel grid="1" page="1" gridSize="10" guides="1" tooltips="1" connect="1" arrows="1" fold="1" pageScale="1" pageWidth="850" pageHeight="1100" math="0" shadow="0">
      <root>
        <mxCell id="0" />
        <mxCell id="1" parent="0" />
        <mxCell id="95jg-TMvlrJEj6wFgsVQ-113" value="&amp;nbsp; &amp;nbsp; &amp;nbsp; &amp;nbsp; &amp;nbsp; &amp;nbsp; &amp;nbsp; &amp;nbsp; &amp;nbsp; &amp;nbsp; &amp;nbsp; &amp;nbsp; &amp;nbsp;Проверка данных" style="endArrow=classic;html=1;rounded=0;" edge="1" parent="1">
          <mxGeometry width="50" height="50" relative="1" as="geometry">
            <mxPoint x="986" y="528" as="sourcePoint" />
            <mxPoint x="986" y="548" as="targetPoint" />
            <Array as="points">
              <mxPoint x="1011" y="528" />
              <mxPoint x="1011" y="534" />
              <mxPoint x="1011" y="548" />
            </Array>
          </mxGeometry>
        </mxCell>
        <mxCell id="95jg-TMvlrJEj6wFgsVQ-110" value="&amp;nbsp; &amp;nbsp; &amp;nbsp; &amp;nbsp; &amp;nbsp; &amp;nbsp; &amp;nbsp; &amp;nbsp; &amp;nbsp; &amp;nbsp; &amp;nbsp; &amp;nbsp; &amp;nbsp;Проверка данных" style="endArrow=classic;html=1;rounded=0;" edge="1" parent="1">
          <mxGeometry width="50" height="50" relative="1" as="geometry">
            <mxPoint x="386.5" y="548.9999999999999" as="sourcePoint" />
            <mxPoint x="387" y="569" as="targetPoint" />
            <Array as="points">
              <mxPoint x="411.5" y="549" />
              <mxPoint x="411.5" y="555" />
              <mxPoint x="411.5" y="569" />
            </Array>
          </mxGeometry>
        </mxCell>
        <mxCell id="95jg-TMvlrJEj6wFgsVQ-103" value="&amp;nbsp; &amp;nbsp; &amp;nbsp; &amp;nbsp; &amp;nbsp; &amp;nbsp; &amp;nbsp; &amp;nbsp; &amp;nbsp; &amp;nbsp; &amp;nbsp; &amp;nbsp; Проверка данных" style="endArrow=classic;html=1;rounded=0;" edge="1" parent="1">
          <mxGeometry width="50" height="50" relative="1" as="geometry">
            <mxPoint x="395" y="210" as="sourcePoint" />
            <mxPoint x="395" y="230" as="targetPoint" />
            <Array as="points">
              <mxPoint x="420" y="210" />
              <mxPoint x="420" y="220" />
              <mxPoint x="420" y="230" />
            </Array>
          </mxGeometry>
        </mxCell>
        <mxCell id="aM9ryv3xv72pqoxQDRHE-1" value="Пользователь" style="shape=umlLifeline;perimeter=lifelinePerimeter;whiteSpace=wrap;html=1;container=0;dropTarget=0;collapsible=0;recursiveResize=0;outlineConnect=0;portConstraint=eastwest;newEdgeStyle={&quot;edgeStyle&quot;:&quot;elbowEdgeStyle&quot;,&quot;elbow&quot;:&quot;vertical&quot;,&quot;curved&quot;:0,&quot;rounded&quot;:0};" vertex="1" parent="1">
          <mxGeometry x="40" y="40" width="100" height="250" as="geometry" />
        </mxCell>
        <mxCell id="aM9ryv3xv72pqoxQDRHE-2" value="" style="html=1;points=[];perimeter=orthogonalPerimeter;outlineConnect=0;targetShapes=umlLifeline;portConstraint=eastwest;newEdgeStyle={&quot;edgeStyle&quot;:&quot;elbowEdgeStyle&quot;,&quot;elbow&quot;:&quot;vertical&quot;,&quot;curved&quot;:0,&quot;rounded&quot;:0};" vertex="1" parent="aM9ryv3xv72pqoxQDRHE-1">
          <mxGeometry x="45" y="70" width="10" height="160" as="geometry" />
        </mxCell>
        <mxCell id="aM9ryv3xv72pqoxQDRHE-5" value="Сервер" style="shape=umlLifeline;perimeter=lifelinePerimeter;whiteSpace=wrap;html=1;container=0;dropTarget=0;collapsible=0;recursiveResize=0;outlineConnect=0;portConstraint=eastwest;newEdgeStyle={&quot;edgeStyle&quot;:&quot;elbowEdgeStyle&quot;,&quot;elbow&quot;:&quot;vertical&quot;,&quot;curved&quot;:0,&quot;rounded&quot;:0};" vertex="1" parent="1">
          <mxGeometry x="340" y="40" width="100" height="260" as="geometry" />
        </mxCell>
        <mxCell id="95jg-TMvlrJEj6wFgsVQ-9" value="" style="html=1;points=[];perimeter=orthogonalPerimeter;outlineConnect=0;targetShapes=umlLifeline;portConstraint=eastwest;newEdgeStyle={&quot;edgeStyle&quot;:&quot;elbowEdgeStyle&quot;,&quot;elbow&quot;:&quot;vertical&quot;,&quot;curved&quot;:0,&quot;rounded&quot;:0};" vertex="1" parent="aM9ryv3xv72pqoxQDRHE-5">
          <mxGeometry x="45" y="110" width="10" height="130" as="geometry" />
        </mxCell>
        <mxCell id="95jg-TMvlrJEj6wFgsVQ-1" value="База&amp;nbsp; данных" style="shape=umlLifeline;perimeter=lifelinePerimeter;whiteSpace=wrap;html=1;container=0;dropTarget=0;collapsible=0;recursiveResize=0;outlineConnect=0;portConstraint=eastwest;newEdgeStyle={&quot;edgeStyle&quot;:&quot;elbowEdgeStyle&quot;,&quot;elbow&quot;:&quot;vertical&quot;,&quot;curved&quot;:0,&quot;rounded&quot;:0};" vertex="1" parent="1">
          <mxGeometry x="490" y="40" width="100" height="270" as="geometry" />
        </mxCell>
        <mxCell id="95jg-TMvlrJEj6wFgsVQ-10" value="" style="html=1;points=[];perimeter=orthogonalPerimeter;outlineConnect=0;targetShapes=umlLifeline;portConstraint=eastwest;newEdgeStyle={&quot;edgeStyle&quot;:&quot;elbowEdgeStyle&quot;,&quot;elbow&quot;:&quot;vertical&quot;,&quot;curved&quot;:0,&quot;rounded&quot;:0};" vertex="1" parent="95jg-TMvlrJEj6wFgsVQ-1">
          <mxGeometry x="45" y="110" width="10" height="130" as="geometry" />
        </mxCell>
        <mxCell id="95jg-TMvlrJEj6wFgsVQ-3" value="Сайт" style="shape=umlLifeline;perimeter=lifelinePerimeter;whiteSpace=wrap;html=1;container=0;dropTarget=0;collapsible=0;recursiveResize=0;outlineConnect=0;portConstraint=eastwest;newEdgeStyle={&quot;edgeStyle&quot;:&quot;elbowEdgeStyle&quot;,&quot;elbow&quot;:&quot;vertical&quot;,&quot;curved&quot;:0,&quot;rounded&quot;:0};" vertex="1" parent="1">
          <mxGeometry x="190" y="40" width="100" height="260" as="geometry" />
        </mxCell>
        <mxCell id="95jg-TMvlrJEj6wFgsVQ-8" value="" style="html=1;points=[];perimeter=orthogonalPerimeter;outlineConnect=0;targetShapes=umlLifeline;portConstraint=eastwest;newEdgeStyle={&quot;edgeStyle&quot;:&quot;elbowEdgeStyle&quot;,&quot;elbow&quot;:&quot;vertical&quot;,&quot;curved&quot;:0,&quot;rounded&quot;:0};" vertex="1" parent="95jg-TMvlrJEj6wFgsVQ-3">
          <mxGeometry x="45" y="60" width="10" height="50" as="geometry" />
        </mxCell>
        <mxCell id="95jg-TMvlrJEj6wFgsVQ-4" value="Зарегистрироваться" style="endArrow=classic;html=1;rounded=0;" edge="1" parent="1" target="95jg-TMvlrJEj6wFgsVQ-8">
          <mxGeometry width="50" height="50" relative="1" as="geometry">
            <mxPoint x="95" y="120" as="sourcePoint" />
            <mxPoint x="230" y="120" as="targetPoint" />
          </mxGeometry>
        </mxCell>
        <mxCell id="95jg-TMvlrJEj6wFgsVQ-5" value="Форма регистрации" style="endArrow=classic;html=1;rounded=0;dashed=1;" edge="1" parent="1" source="95jg-TMvlrJEj6wFgsVQ-8">
          <mxGeometry width="50" height="50" relative="1" as="geometry">
            <mxPoint x="230" y="140" as="sourcePoint" />
            <mxPoint x="95" y="140" as="targetPoint" />
          </mxGeometry>
        </mxCell>
        <mxCell id="95jg-TMvlrJEj6wFgsVQ-6" value="&lt;span style=&quot;font-size: 10px;&quot;&gt;Отправляет данные&lt;/span&gt;&lt;br&gt;&lt;div style=&quot;font-size: 10px;&quot;&gt;&lt;font style=&quot;font-size: 10px;&quot;&gt;для регистрации&lt;/font&gt;&lt;/div&gt;" style="endArrow=classic;html=1;rounded=0;" edge="1" parent="1">
          <mxGeometry width="50" height="50" relative="1" as="geometry">
            <mxPoint x="93.88" y="170" as="sourcePoint" />
            <mxPoint x="386.13" y="170" as="targetPoint" />
          </mxGeometry>
        </mxCell>
        <mxCell id="95jg-TMvlrJEj6wFgsVQ-11" value="Получить пользователя" style="endArrow=classic;html=1;rounded=0;" edge="1" parent="1" target="95jg-TMvlrJEj6wFgsVQ-10">
          <mxGeometry width="50" height="50" relative="1" as="geometry">
            <mxPoint x="395" y="170" as="sourcePoint" />
            <mxPoint x="530" y="170" as="targetPoint" />
          </mxGeometry>
        </mxCell>
        <mxCell id="95jg-TMvlrJEj6wFgsVQ-13" value="Успешно" style="endArrow=classic;html=1;rounded=0;dashed=1;" edge="1" parent="1">
          <mxGeometry width="50" height="50" relative="1" as="geometry">
            <mxPoint x="385" y="270" as="sourcePoint" />
            <mxPoint x="95" y="270" as="targetPoint" />
          </mxGeometry>
        </mxCell>
        <mxCell id="95jg-TMvlrJEj6wFgsVQ-29" value="Пользователь" style="shape=umlLifeline;perimeter=lifelinePerimeter;whiteSpace=wrap;html=1;container=0;dropTarget=0;collapsible=0;recursiveResize=0;outlineConnect=0;portConstraint=eastwest;newEdgeStyle={&quot;edgeStyle&quot;:&quot;elbowEdgeStyle&quot;,&quot;elbow&quot;:&quot;vertical&quot;,&quot;curved&quot;:0,&quot;rounded&quot;:0};" vertex="1" parent="1">
          <mxGeometry x="30" y="380" width="100" height="220" as="geometry" />
        </mxCell>
        <mxCell id="95jg-TMvlrJEj6wFgsVQ-30" value="" style="html=1;points=[];perimeter=orthogonalPerimeter;outlineConnect=0;targetShapes=umlLifeline;portConstraint=eastwest;newEdgeStyle={&quot;edgeStyle&quot;:&quot;elbowEdgeStyle&quot;,&quot;elbow&quot;:&quot;vertical&quot;,&quot;curved&quot;:0,&quot;rounded&quot;:0};" vertex="1" parent="95jg-TMvlrJEj6wFgsVQ-29">
          <mxGeometry x="45" y="70" width="10" height="120" as="geometry" />
        </mxCell>
        <mxCell id="95jg-TMvlrJEj6wFgsVQ-31" value="Сервер" style="shape=umlLifeline;perimeter=lifelinePerimeter;whiteSpace=wrap;html=1;container=0;dropTarget=0;collapsible=0;recursiveResize=0;outlineConnect=0;portConstraint=eastwest;newEdgeStyle={&quot;edgeStyle&quot;:&quot;elbowEdgeStyle&quot;,&quot;elbow&quot;:&quot;vertical&quot;,&quot;curved&quot;:0,&quot;rounded&quot;:0};" vertex="1" parent="1">
          <mxGeometry x="330" y="380" width="100" height="220" as="geometry" />
        </mxCell>
        <mxCell id="95jg-TMvlrJEj6wFgsVQ-32" value="" style="html=1;points=[];perimeter=orthogonalPerimeter;outlineConnect=0;targetShapes=umlLifeline;portConstraint=eastwest;newEdgeStyle={&quot;edgeStyle&quot;:&quot;elbowEdgeStyle&quot;,&quot;elbow&quot;:&quot;vertical&quot;,&quot;curved&quot;:0,&quot;rounded&quot;:0};" vertex="1" parent="95jg-TMvlrJEj6wFgsVQ-31">
          <mxGeometry x="45" y="110" width="10" height="90" as="geometry" />
        </mxCell>
        <mxCell id="95jg-TMvlrJEj6wFgsVQ-33" value="База&amp;nbsp; данных" style="shape=umlLifeline;perimeter=lifelinePerimeter;whiteSpace=wrap;html=1;container=0;dropTarget=0;collapsible=0;recursiveResize=0;outlineConnect=0;portConstraint=eastwest;newEdgeStyle={&quot;edgeStyle&quot;:&quot;elbowEdgeStyle&quot;,&quot;elbow&quot;:&quot;vertical&quot;,&quot;curved&quot;:0,&quot;rounded&quot;:0};" vertex="1" parent="1">
          <mxGeometry x="490" y="380" width="100" height="220" as="geometry" />
        </mxCell>
        <mxCell id="95jg-TMvlrJEj6wFgsVQ-34" value="" style="html=1;points=[];perimeter=orthogonalPerimeter;outlineConnect=0;targetShapes=umlLifeline;portConstraint=eastwest;newEdgeStyle={&quot;edgeStyle&quot;:&quot;elbowEdgeStyle&quot;,&quot;elbow&quot;:&quot;vertical&quot;,&quot;curved&quot;:0,&quot;rounded&quot;:0};" vertex="1" parent="95jg-TMvlrJEj6wFgsVQ-33">
          <mxGeometry x="45" y="110" width="10" height="90" as="geometry" />
        </mxCell>
        <mxCell id="95jg-TMvlrJEj6wFgsVQ-35" value="Сайт" style="shape=umlLifeline;perimeter=lifelinePerimeter;whiteSpace=wrap;html=1;container=0;dropTarget=0;collapsible=0;recursiveResize=0;outlineConnect=0;portConstraint=eastwest;newEdgeStyle={&quot;edgeStyle&quot;:&quot;elbowEdgeStyle&quot;,&quot;elbow&quot;:&quot;vertical&quot;,&quot;curved&quot;:0,&quot;rounded&quot;:0};" vertex="1" parent="1">
          <mxGeometry x="180" y="380" width="100" height="220" as="geometry" />
        </mxCell>
        <mxCell id="95jg-TMvlrJEj6wFgsVQ-36" value="" style="html=1;points=[];perimeter=orthogonalPerimeter;outlineConnect=0;targetShapes=umlLifeline;portConstraint=eastwest;newEdgeStyle={&quot;edgeStyle&quot;:&quot;elbowEdgeStyle&quot;,&quot;elbow&quot;:&quot;vertical&quot;,&quot;curved&quot;:0,&quot;rounded&quot;:0};" vertex="1" parent="95jg-TMvlrJEj6wFgsVQ-35">
          <mxGeometry x="45" y="60" width="10" height="50" as="geometry" />
        </mxCell>
        <mxCell id="95jg-TMvlrJEj6wFgsVQ-37" value="Авторизоваться" style="endArrow=classic;html=1;rounded=0;" edge="1" parent="1" target="95jg-TMvlrJEj6wFgsVQ-36">
          <mxGeometry x="0.0041" width="50" height="50" relative="1" as="geometry">
            <mxPoint x="85" y="460" as="sourcePoint" />
            <mxPoint x="220" y="460" as="targetPoint" />
            <mxPoint as="offset" />
          </mxGeometry>
        </mxCell>
        <mxCell id="95jg-TMvlrJEj6wFgsVQ-38" value="Форма авторизации" style="endArrow=classic;html=1;rounded=0;dashed=1;" edge="1" parent="1" source="95jg-TMvlrJEj6wFgsVQ-36">
          <mxGeometry width="50" height="50" relative="1" as="geometry">
            <mxPoint x="220" y="480" as="sourcePoint" />
            <mxPoint x="85" y="480" as="targetPoint" />
          </mxGeometry>
        </mxCell>
        <mxCell id="95jg-TMvlrJEj6wFgsVQ-39" value="&lt;span style=&quot;font-size: 10px;&quot;&gt;Отправляет данные&lt;/span&gt;&lt;br&gt;&lt;div style=&quot;font-size: 10px;&quot;&gt;&lt;font style=&quot;font-size: 10px;&quot;&gt;для авторизации&lt;/font&gt;&lt;/div&gt;" style="endArrow=classic;html=1;rounded=0;" edge="1" parent="1">
          <mxGeometry width="50" height="50" relative="1" as="geometry">
            <mxPoint x="83.88" y="510" as="sourcePoint" />
            <mxPoint x="376.13" y="510" as="targetPoint" />
          </mxGeometry>
        </mxCell>
        <mxCell id="95jg-TMvlrJEj6wFgsVQ-41" value="Успешно" style="endArrow=classic;html=1;rounded=0;dashed=1;" edge="1" parent="1">
          <mxGeometry width="50" height="50" relative="1" as="geometry">
            <mxPoint x="375" y="570" as="sourcePoint" />
            <mxPoint x="85" y="570" as="targetPoint" />
          </mxGeometry>
        </mxCell>
        <mxCell id="95jg-TMvlrJEj6wFgsVQ-42" value="Пользователь" style="shape=umlLifeline;perimeter=lifelinePerimeter;whiteSpace=wrap;html=1;container=0;dropTarget=0;collapsible=0;recursiveResize=0;outlineConnect=0;portConstraint=eastwest;newEdgeStyle={&quot;edgeStyle&quot;:&quot;elbowEdgeStyle&quot;,&quot;elbow&quot;:&quot;vertical&quot;,&quot;curved&quot;:0,&quot;rounded&quot;:0};" vertex="1" parent="1">
          <mxGeometry x="630" y="60" width="100" height="220" as="geometry" />
        </mxCell>
        <mxCell id="95jg-TMvlrJEj6wFgsVQ-43" value="" style="html=1;points=[];perimeter=orthogonalPerimeter;outlineConnect=0;targetShapes=umlLifeline;portConstraint=eastwest;newEdgeStyle={&quot;edgeStyle&quot;:&quot;elbowEdgeStyle&quot;,&quot;elbow&quot;:&quot;vertical&quot;,&quot;curved&quot;:0,&quot;rounded&quot;:0};" vertex="1" parent="95jg-TMvlrJEj6wFgsVQ-42">
          <mxGeometry x="45" y="70" width="10" height="140" as="geometry" />
        </mxCell>
        <mxCell id="95jg-TMvlrJEj6wFgsVQ-44" value="Сервер" style="shape=umlLifeline;perimeter=lifelinePerimeter;whiteSpace=wrap;html=1;container=0;dropTarget=0;collapsible=0;recursiveResize=0;outlineConnect=0;portConstraint=eastwest;newEdgeStyle={&quot;edgeStyle&quot;:&quot;elbowEdgeStyle&quot;,&quot;elbow&quot;:&quot;vertical&quot;,&quot;curved&quot;:0,&quot;rounded&quot;:0};" vertex="1" parent="1">
          <mxGeometry x="930" y="60" width="100" height="220" as="geometry" />
        </mxCell>
        <mxCell id="95jg-TMvlrJEj6wFgsVQ-107" value="" style="endArrow=classic;html=1;rounded=0;" edge="1" parent="95jg-TMvlrJEj6wFgsVQ-44" source="95jg-TMvlrJEj6wFgsVQ-44" target="95jg-TMvlrJEj6wFgsVQ-45">
          <mxGeometry width="50" height="50" relative="1" as="geometry">
            <mxPoint x="-200" y="250" as="sourcePoint" />
            <mxPoint x="-150" y="200" as="targetPoint" />
          </mxGeometry>
        </mxCell>
        <mxCell id="95jg-TMvlrJEj6wFgsVQ-45" value="" style="html=1;points=[];perimeter=orthogonalPerimeter;outlineConnect=0;targetShapes=umlLifeline;portConstraint=eastwest;newEdgeStyle={&quot;edgeStyle&quot;:&quot;elbowEdgeStyle&quot;,&quot;elbow&quot;:&quot;vertical&quot;,&quot;curved&quot;:0,&quot;rounded&quot;:0};" vertex="1" parent="95jg-TMvlrJEj6wFgsVQ-44">
          <mxGeometry x="45" y="110" width="10" height="100" as="geometry" />
        </mxCell>
        <mxCell id="95jg-TMvlrJEj6wFgsVQ-46" value="База&amp;nbsp; данных" style="shape=umlLifeline;perimeter=lifelinePerimeter;whiteSpace=wrap;html=1;container=0;dropTarget=0;collapsible=0;recursiveResize=0;outlineConnect=0;portConstraint=eastwest;newEdgeStyle={&quot;edgeStyle&quot;:&quot;elbowEdgeStyle&quot;,&quot;elbow&quot;:&quot;vertical&quot;,&quot;curved&quot;:0,&quot;rounded&quot;:0};" vertex="1" parent="1">
          <mxGeometry x="1080" y="60" width="100" height="220" as="geometry" />
        </mxCell>
        <mxCell id="95jg-TMvlrJEj6wFgsVQ-47" value="" style="html=1;points=[];perimeter=orthogonalPerimeter;outlineConnect=0;targetShapes=umlLifeline;portConstraint=eastwest;newEdgeStyle={&quot;edgeStyle&quot;:&quot;elbowEdgeStyle&quot;,&quot;elbow&quot;:&quot;vertical&quot;,&quot;curved&quot;:0,&quot;rounded&quot;:0};" vertex="1" parent="95jg-TMvlrJEj6wFgsVQ-46">
          <mxGeometry x="45" y="110" width="10" height="100" as="geometry" />
        </mxCell>
        <mxCell id="95jg-TMvlrJEj6wFgsVQ-48" value="Сайт" style="shape=umlLifeline;perimeter=lifelinePerimeter;whiteSpace=wrap;html=1;container=0;dropTarget=0;collapsible=0;recursiveResize=0;outlineConnect=0;portConstraint=eastwest;newEdgeStyle={&quot;edgeStyle&quot;:&quot;elbowEdgeStyle&quot;,&quot;elbow&quot;:&quot;vertical&quot;,&quot;curved&quot;:0,&quot;rounded&quot;:0};" vertex="1" parent="1">
          <mxGeometry x="780" y="60" width="100" height="220" as="geometry" />
        </mxCell>
        <mxCell id="95jg-TMvlrJEj6wFgsVQ-49" value="" style="html=1;points=[];perimeter=orthogonalPerimeter;outlineConnect=0;targetShapes=umlLifeline;portConstraint=eastwest;newEdgeStyle={&quot;edgeStyle&quot;:&quot;elbowEdgeStyle&quot;,&quot;elbow&quot;:&quot;vertical&quot;,&quot;curved&quot;:0,&quot;rounded&quot;:0};" vertex="1" parent="95jg-TMvlrJEj6wFgsVQ-48">
          <mxGeometry x="45" y="60" width="10" height="60" as="geometry" />
        </mxCell>
        <mxCell id="95jg-TMvlrJEj6wFgsVQ-50" value="Создать голосование" style="endArrow=classic;html=1;rounded=0;" edge="1" parent="1" target="95jg-TMvlrJEj6wFgsVQ-49">
          <mxGeometry x="0.0041" width="50" height="50" relative="1" as="geometry">
            <mxPoint x="685" y="140" as="sourcePoint" />
            <mxPoint x="820" y="140" as="targetPoint" />
            <mxPoint as="offset" />
          </mxGeometry>
        </mxCell>
        <mxCell id="95jg-TMvlrJEj6wFgsVQ-51" value="Форма создания&lt;div&gt;голосования&lt;/div&gt;" style="endArrow=classic;html=1;rounded=0;dashed=1;" edge="1" parent="1">
          <mxGeometry width="50" height="50" relative="1" as="geometry">
            <mxPoint x="825" y="169.71000000000004" as="sourcePoint" />
            <mxPoint x="685" y="169.71000000000004" as="targetPoint" />
          </mxGeometry>
        </mxCell>
        <mxCell id="95jg-TMvlrJEj6wFgsVQ-52" value="&lt;span style=&quot;font-size: 10px;&quot;&gt;Отправляет данные&lt;/span&gt;&lt;br&gt;&lt;div style=&quot;font-size: 10px;&quot;&gt;&lt;font style=&quot;font-size: 10px;&quot;&gt;для создания голосования&lt;/font&gt;&lt;/div&gt;" style="endArrow=classic;html=1;rounded=0;" edge="1" parent="1">
          <mxGeometry width="50" height="50" relative="1" as="geometry">
            <mxPoint x="683.88" y="200" as="sourcePoint" />
            <mxPoint x="976.13" y="200" as="targetPoint" />
          </mxGeometry>
        </mxCell>
        <mxCell id="95jg-TMvlrJEj6wFgsVQ-53" value="Создать голосование" style="endArrow=classic;html=1;rounded=0;" edge="1" parent="1">
          <mxGeometry width="50" height="50" relative="1" as="geometry">
            <mxPoint x="985" y="215" as="sourcePoint" />
            <mxPoint x="1129.5" y="215" as="targetPoint" />
          </mxGeometry>
        </mxCell>
        <mxCell id="95jg-TMvlrJEj6wFgsVQ-54" value="Успешно" style="endArrow=classic;html=1;rounded=0;dashed=1;" edge="1" parent="1">
          <mxGeometry width="50" height="50" relative="1" as="geometry">
            <mxPoint x="975" y="249" as="sourcePoint" />
            <mxPoint x="685" y="249" as="targetPoint" />
          </mxGeometry>
        </mxCell>
        <mxCell id="95jg-TMvlrJEj6wFgsVQ-55" value="Пользователь" style="shape=umlLifeline;perimeter=lifelinePerimeter;whiteSpace=wrap;html=1;container=0;dropTarget=0;collapsible=0;recursiveResize=0;outlineConnect=0;portConstraint=eastwest;newEdgeStyle={&quot;edgeStyle&quot;:&quot;elbowEdgeStyle&quot;,&quot;elbow&quot;:&quot;vertical&quot;,&quot;curved&quot;:0,&quot;rounded&quot;:0};" vertex="1" parent="1">
          <mxGeometry x="630" y="310" width="100" height="300" as="geometry" />
        </mxCell>
        <mxCell id="95jg-TMvlrJEj6wFgsVQ-56" value="" style="html=1;points=[];perimeter=orthogonalPerimeter;outlineConnect=0;targetShapes=umlLifeline;portConstraint=eastwest;newEdgeStyle={&quot;edgeStyle&quot;:&quot;elbowEdgeStyle&quot;,&quot;elbow&quot;:&quot;vertical&quot;,&quot;curved&quot;:0,&quot;rounded&quot;:0};" vertex="1" parent="95jg-TMvlrJEj6wFgsVQ-55">
          <mxGeometry x="45" y="60" width="10" height="230" as="geometry" />
        </mxCell>
        <mxCell id="95jg-TMvlrJEj6wFgsVQ-57" value="Сервер" style="shape=umlLifeline;perimeter=lifelinePerimeter;whiteSpace=wrap;html=1;container=0;dropTarget=0;collapsible=0;recursiveResize=0;outlineConnect=0;portConstraint=eastwest;newEdgeStyle={&quot;edgeStyle&quot;:&quot;elbowEdgeStyle&quot;,&quot;elbow&quot;:&quot;vertical&quot;,&quot;curved&quot;:0,&quot;rounded&quot;:0};" vertex="1" parent="1">
          <mxGeometry x="930" y="310" width="100" height="290" as="geometry" />
        </mxCell>
        <mxCell id="95jg-TMvlrJEj6wFgsVQ-58" value="" style="html=1;points=[];perimeter=orthogonalPerimeter;outlineConnect=0;targetShapes=umlLifeline;portConstraint=eastwest;newEdgeStyle={&quot;edgeStyle&quot;:&quot;elbowEdgeStyle&quot;,&quot;elbow&quot;:&quot;vertical&quot;,&quot;curved&quot;:0,&quot;rounded&quot;:0};" vertex="1" parent="95jg-TMvlrJEj6wFgsVQ-57">
          <mxGeometry x="45" y="170" width="10" height="120" as="geometry" />
        </mxCell>
        <mxCell id="95jg-TMvlrJEj6wFgsVQ-59" value="База&amp;nbsp; данных" style="shape=umlLifeline;perimeter=lifelinePerimeter;whiteSpace=wrap;html=1;container=0;dropTarget=0;collapsible=0;recursiveResize=0;outlineConnect=0;portConstraint=eastwest;newEdgeStyle={&quot;edgeStyle&quot;:&quot;elbowEdgeStyle&quot;,&quot;elbow&quot;:&quot;vertical&quot;,&quot;curved&quot;:0,&quot;rounded&quot;:0};" vertex="1" parent="1">
          <mxGeometry x="1080" y="310" width="100" height="290" as="geometry" />
        </mxCell>
        <mxCell id="95jg-TMvlrJEj6wFgsVQ-60" value="" style="html=1;points=[];perimeter=orthogonalPerimeter;outlineConnect=0;targetShapes=umlLifeline;portConstraint=eastwest;newEdgeStyle={&quot;edgeStyle&quot;:&quot;elbowEdgeStyle&quot;,&quot;elbow&quot;:&quot;vertical&quot;,&quot;curved&quot;:0,&quot;rounded&quot;:0};" vertex="1" parent="95jg-TMvlrJEj6wFgsVQ-59">
          <mxGeometry x="45" y="170" width="10" height="120" as="geometry" />
        </mxCell>
        <mxCell id="95jg-TMvlrJEj6wFgsVQ-61" value="Сайт" style="shape=umlLifeline;perimeter=lifelinePerimeter;whiteSpace=wrap;html=1;container=0;dropTarget=0;collapsible=0;recursiveResize=0;outlineConnect=0;portConstraint=eastwest;newEdgeStyle={&quot;edgeStyle&quot;:&quot;elbowEdgeStyle&quot;,&quot;elbow&quot;:&quot;vertical&quot;,&quot;curved&quot;:0,&quot;rounded&quot;:0};" vertex="1" parent="1">
          <mxGeometry x="780" y="310" width="100" height="300" as="geometry" />
        </mxCell>
        <mxCell id="95jg-TMvlrJEj6wFgsVQ-62" value="" style="html=1;points=[];perimeter=orthogonalPerimeter;outlineConnect=0;targetShapes=umlLifeline;portConstraint=eastwest;newEdgeStyle={&quot;edgeStyle&quot;:&quot;elbowEdgeStyle&quot;,&quot;elbow&quot;:&quot;vertical&quot;,&quot;curved&quot;:0,&quot;rounded&quot;:0};" vertex="1" parent="95jg-TMvlrJEj6wFgsVQ-61">
          <mxGeometry x="45" y="60" width="10" height="110" as="geometry" />
        </mxCell>
        <mxCell id="95jg-TMvlrJEj6wFgsVQ-63" value="Выбрать голосование" style="endArrow=classic;html=1;rounded=0;" edge="1" parent="1">
          <mxGeometry x="0.0041" width="50" height="50" relative="1" as="geometry">
            <mxPoint x="685" y="385" as="sourcePoint" />
            <mxPoint x="825" y="385" as="targetPoint" />
            <mxPoint as="offset" />
          </mxGeometry>
        </mxCell>
        <mxCell id="95jg-TMvlrJEj6wFgsVQ-64" value="Списки голосования" style="endArrow=classic;html=1;rounded=0;dashed=1;" edge="1" parent="1">
          <mxGeometry width="50" height="50" relative="1" as="geometry">
            <mxPoint x="825" y="414.71000000000004" as="sourcePoint" />
            <mxPoint x="685" y="414.71000000000004" as="targetPoint" />
          </mxGeometry>
        </mxCell>
        <mxCell id="95jg-TMvlrJEj6wFgsVQ-65" value="&lt;span style=&quot;font-size: 10px;&quot;&gt;Отправляет данные&lt;/span&gt;&lt;br&gt;&lt;div style=&quot;font-size: 10px;&quot;&gt;&lt;font style=&quot;font-size: 10px;&quot;&gt;для голосования&lt;/font&gt;&lt;/div&gt;" style="endArrow=classic;html=1;rounded=0;" edge="1" parent="1">
          <mxGeometry x="0.0011" width="50" height="50" relative="1" as="geometry">
            <mxPoint x="683.88" y="502" as="sourcePoint" />
            <mxPoint x="976.13" y="502" as="targetPoint" />
            <mxPoint as="offset" />
          </mxGeometry>
        </mxCell>
        <mxCell id="95jg-TMvlrJEj6wFgsVQ-67" value="Успешно" style="endArrow=classic;html=1;rounded=0;dashed=1;" edge="1" parent="1">
          <mxGeometry width="50" height="50" relative="1" as="geometry">
            <mxPoint x="975" y="590" as="sourcePoint" />
            <mxPoint x="685" y="590" as="targetPoint" />
          </mxGeometry>
        </mxCell>
        <mxCell id="95jg-TMvlrJEj6wFgsVQ-68" value="Пользователь" style="shape=umlLifeline;perimeter=lifelinePerimeter;whiteSpace=wrap;html=1;container=0;dropTarget=0;collapsible=0;recursiveResize=0;outlineConnect=0;portConstraint=eastwest;newEdgeStyle={&quot;edgeStyle&quot;:&quot;elbowEdgeStyle&quot;,&quot;elbow&quot;:&quot;vertical&quot;,&quot;curved&quot;:0,&quot;rounded&quot;:0};" vertex="1" parent="1">
          <mxGeometry x="340" y="680" width="100" height="250" as="geometry" />
        </mxCell>
        <mxCell id="95jg-TMvlrJEj6wFgsVQ-69" value="" style="html=1;points=[];perimeter=orthogonalPerimeter;outlineConnect=0;targetShapes=umlLifeline;portConstraint=eastwest;newEdgeStyle={&quot;edgeStyle&quot;:&quot;elbowEdgeStyle&quot;,&quot;elbow&quot;:&quot;vertical&quot;,&quot;curved&quot;:0,&quot;rounded&quot;:0};" vertex="1" parent="95jg-TMvlrJEj6wFgsVQ-68">
          <mxGeometry x="45" y="70" width="10" height="170" as="geometry" />
        </mxCell>
        <mxCell id="95jg-TMvlrJEj6wFgsVQ-70" value="Сервер" style="shape=umlLifeline;perimeter=lifelinePerimeter;whiteSpace=wrap;html=1;container=0;dropTarget=0;collapsible=0;recursiveResize=0;outlineConnect=0;portConstraint=eastwest;newEdgeStyle={&quot;edgeStyle&quot;:&quot;elbowEdgeStyle&quot;,&quot;elbow&quot;:&quot;vertical&quot;,&quot;curved&quot;:0,&quot;rounded&quot;:0};" vertex="1" parent="1">
          <mxGeometry x="640" y="680" width="100" height="250" as="geometry" />
        </mxCell>
        <mxCell id="95jg-TMvlrJEj6wFgsVQ-97" value="&amp;nbsp; &amp;nbsp; &amp;nbsp; &amp;nbsp; &amp;nbsp; &amp;nbsp; &amp;nbsp; &amp;nbsp; &amp;nbsp; &amp;nbsp; &amp;nbsp; &amp;nbsp; Подсчёт голосов" style="endArrow=classic;html=1;rounded=0;" edge="1" parent="95jg-TMvlrJEj6wFgsVQ-70">
          <mxGeometry width="50" height="50" relative="1" as="geometry">
            <mxPoint x="55" y="170" as="sourcePoint" />
            <mxPoint x="55" y="190" as="targetPoint" />
            <Array as="points">
              <mxPoint x="80" y="170" />
              <mxPoint x="80" y="180" />
              <mxPoint x="80" y="190" />
            </Array>
          </mxGeometry>
        </mxCell>
        <mxCell id="95jg-TMvlrJEj6wFgsVQ-71" value="" style="html=1;points=[];perimeter=orthogonalPerimeter;outlineConnect=0;targetShapes=umlLifeline;portConstraint=eastwest;newEdgeStyle={&quot;edgeStyle&quot;:&quot;elbowEdgeStyle&quot;,&quot;elbow&quot;:&quot;vertical&quot;,&quot;curved&quot;:0,&quot;rounded&quot;:0};" vertex="1" parent="95jg-TMvlrJEj6wFgsVQ-70">
          <mxGeometry x="45" y="120" width="10" height="110" as="geometry" />
        </mxCell>
        <mxCell id="95jg-TMvlrJEj6wFgsVQ-72" value="База&amp;nbsp; данных" style="shape=umlLifeline;perimeter=lifelinePerimeter;whiteSpace=wrap;html=1;container=0;dropTarget=0;collapsible=0;recursiveResize=0;outlineConnect=0;portConstraint=eastwest;newEdgeStyle={&quot;edgeStyle&quot;:&quot;elbowEdgeStyle&quot;,&quot;elbow&quot;:&quot;vertical&quot;,&quot;curved&quot;:0,&quot;rounded&quot;:0};" vertex="1" parent="1">
          <mxGeometry x="790" y="680" width="100" height="250" as="geometry" />
        </mxCell>
        <mxCell id="95jg-TMvlrJEj6wFgsVQ-73" value="" style="html=1;points=[];perimeter=orthogonalPerimeter;outlineConnect=0;targetShapes=umlLifeline;portConstraint=eastwest;newEdgeStyle={&quot;edgeStyle&quot;:&quot;elbowEdgeStyle&quot;,&quot;elbow&quot;:&quot;vertical&quot;,&quot;curved&quot;:0,&quot;rounded&quot;:0};" vertex="1" parent="95jg-TMvlrJEj6wFgsVQ-72">
          <mxGeometry x="45" y="120" width="10" height="70" as="geometry" />
        </mxCell>
        <mxCell id="95jg-TMvlrJEj6wFgsVQ-74" value="Сайт" style="shape=umlLifeline;perimeter=lifelinePerimeter;whiteSpace=wrap;html=1;container=0;dropTarget=0;collapsible=0;recursiveResize=0;outlineConnect=0;portConstraint=eastwest;newEdgeStyle={&quot;edgeStyle&quot;:&quot;elbowEdgeStyle&quot;,&quot;elbow&quot;:&quot;vertical&quot;,&quot;curved&quot;:0,&quot;rounded&quot;:0};" vertex="1" parent="1">
          <mxGeometry x="490" y="680" width="100" height="250" as="geometry" />
        </mxCell>
        <mxCell id="95jg-TMvlrJEj6wFgsVQ-75" value="" style="html=1;points=[];perimeter=orthogonalPerimeter;outlineConnect=0;targetShapes=umlLifeline;portConstraint=eastwest;newEdgeStyle={&quot;edgeStyle&quot;:&quot;elbowEdgeStyle&quot;,&quot;elbow&quot;:&quot;vertical&quot;,&quot;curved&quot;:0,&quot;rounded&quot;:0};" vertex="1" parent="95jg-TMvlrJEj6wFgsVQ-74">
          <mxGeometry x="45" y="60" width="10" height="130" as="geometry" />
        </mxCell>
        <mxCell id="95jg-TMvlrJEj6wFgsVQ-76" value="Завершить голосование" style="endArrow=classic;html=1;rounded=0;" edge="1" parent="1">
          <mxGeometry x="0.0041" width="50" height="50" relative="1" as="geometry">
            <mxPoint x="395" y="824" as="sourcePoint" />
            <mxPoint x="535" y="824" as="targetPoint" />
            <mxPoint as="offset" />
          </mxGeometry>
        </mxCell>
        <mxCell id="95jg-TMvlrJEj6wFgsVQ-78" value="&lt;span style=&quot;font-size: 10px;&quot;&gt;Запрос на завершение&lt;/span&gt;" style="endArrow=classic;html=1;rounded=0;" edge="1" parent="1">
          <mxGeometry x="0.0042" width="50" height="50" relative="1" as="geometry">
            <mxPoint x="543.88" y="824" as="sourcePoint" />
            <mxPoint x="685" y="824" as="targetPoint" />
            <mxPoint as="offset" />
          </mxGeometry>
        </mxCell>
        <mxCell id="95jg-TMvlrJEj6wFgsVQ-79" value="Сбор данных" style="endArrow=classic;html=1;rounded=0;" edge="1" parent="1">
          <mxGeometry width="50" height="50" relative="1" as="geometry">
            <mxPoint x="695" y="824" as="sourcePoint" />
            <mxPoint x="835" y="824" as="targetPoint" />
          </mxGeometry>
        </mxCell>
        <mxCell id="95jg-TMvlrJEj6wFgsVQ-81" value="Статистика" style="endArrow=classic;html=1;rounded=0;dashed=1;" edge="1" parent="1" source="95jg-TMvlrJEj6wFgsVQ-71">
          <mxGeometry width="50" height="50" relative="1" as="geometry">
            <mxPoint x="680" y="900" as="sourcePoint" />
            <mxPoint x="395" y="900" as="targetPoint" />
          </mxGeometry>
        </mxCell>
        <mxCell id="95jg-TMvlrJEj6wFgsVQ-82" value="Регистрация" style="text;html=1;align=center;verticalAlign=middle;whiteSpace=wrap;rounded=0;fontSize=18;fontStyle=1" vertex="1" parent="1">
          <mxGeometry x="260" width="60" height="30" as="geometry" />
        </mxCell>
        <mxCell id="95jg-TMvlrJEj6wFgsVQ-83" value="Авторизация" style="text;html=1;align=center;verticalAlign=middle;whiteSpace=wrap;rounded=0;strokeWidth=4;fontSize=18;fontStyle=1" vertex="1" parent="1">
          <mxGeometry x="270" y="340" width="60" height="30" as="geometry" />
        </mxCell>
        <mxCell id="95jg-TMvlrJEj6wFgsVQ-84" value="Создание голосования" style="text;html=1;align=center;verticalAlign=middle;whiteSpace=wrap;rounded=0;fontSize=18;fontStyle=1" vertex="1" parent="1">
          <mxGeometry x="860" y="20" width="80" height="30" as="geometry" />
        </mxCell>
        <mxCell id="95jg-TMvlrJEj6wFgsVQ-85" value="Голосование" style="text;html=1;align=center;verticalAlign=middle;whiteSpace=wrap;rounded=0;fontSize=18;fontStyle=1" vertex="1" parent="1">
          <mxGeometry x="860" y="270" width="80" height="30" as="geometry" />
        </mxCell>
        <mxCell id="95jg-TMvlrJEj6wFgsVQ-86" value="Завершение голосования" style="text;html=1;align=center;verticalAlign=middle;whiteSpace=wrap;rounded=0;strokeWidth=4;fontSize=18;fontStyle=1" vertex="1" parent="1">
          <mxGeometry x="540" y="630" width="150" height="30" as="geometry" />
        </mxCell>
        <mxCell id="95jg-TMvlrJEj6wFgsVQ-91" value="Проголосовать" style="endArrow=classic;html=1;rounded=0;" edge="1" parent="1">
          <mxGeometry x="0.0041" width="50" height="50" relative="1" as="geometry">
            <mxPoint x="685" y="440" as="sourcePoint" />
            <mxPoint x="825" y="440" as="targetPoint" />
            <mxPoint as="offset" />
          </mxGeometry>
        </mxCell>
        <mxCell id="95jg-TMvlrJEj6wFgsVQ-92" value="Форма для голосования" style="endArrow=classic;html=1;rounded=0;dashed=1;" edge="1" parent="1">
          <mxGeometry width="50" height="50" relative="1" as="geometry">
            <mxPoint x="825" y="470" as="sourcePoint" />
            <mxPoint x="685" y="470" as="targetPoint" />
          </mxGeometry>
        </mxCell>
        <mxCell id="95jg-TMvlrJEj6wFgsVQ-93" value="Выбрать голосование" style="endArrow=classic;html=1;rounded=0;" edge="1" parent="1">
          <mxGeometry x="0.0041" width="50" height="50" relative="1" as="geometry">
            <mxPoint x="395" y="760" as="sourcePoint" />
            <mxPoint x="535" y="760" as="targetPoint" />
            <mxPoint as="offset" />
          </mxGeometry>
        </mxCell>
        <mxCell id="95jg-TMvlrJEj6wFgsVQ-94" value="Списки голосования" style="endArrow=classic;html=1;rounded=0;dashed=1;" edge="1" parent="1">
          <mxGeometry width="50" height="50" relative="1" as="geometry">
            <mxPoint x="535" y="789.71" as="sourcePoint" />
            <mxPoint x="395" y="789.71" as="targetPoint" />
          </mxGeometry>
        </mxCell>
        <mxCell id="95jg-TMvlrJEj6wFgsVQ-95" value="Данные" style="endArrow=classic;html=1;rounded=0;dashed=1;" edge="1" parent="1">
          <mxGeometry width="50" height="50" relative="1" as="geometry">
            <mxPoint x="834" y="840" as="sourcePoint" />
            <mxPoint x="694" y="840" as="targetPoint" />
          </mxGeometry>
        </mxCell>
        <mxCell id="95jg-TMvlrJEj6wFgsVQ-98" value="Успешно" style="endArrow=classic;html=1;rounded=0;dashed=1;" edge="1" parent="1" target="95jg-TMvlrJEj6wFgsVQ-9">
          <mxGeometry width="50" height="50" relative="1" as="geometry">
            <mxPoint x="535" y="200" as="sourcePoint" />
            <mxPoint x="400" y="190" as="targetPoint" />
          </mxGeometry>
        </mxCell>
        <mxCell id="95jg-TMvlrJEj6wFgsVQ-109" value="Успешно" style="endArrow=classic;html=1;rounded=0;dashed=1;" edge="1" parent="1">
          <mxGeometry width="50" height="50" relative="1" as="geometry">
            <mxPoint x="1125" y="237.43" as="sourcePoint" />
            <mxPoint x="985" y="237.43" as="targetPoint" />
          </mxGeometry>
        </mxCell>
        <mxCell id="95jg-TMvlrJEj6wFgsVQ-111" value="Получить пользователя" style="endArrow=classic;html=1;rounded=0;" edge="1" parent="1">
          <mxGeometry width="50" height="50" relative="1" as="geometry">
            <mxPoint x="386.5" y="510" as="sourcePoint" />
            <mxPoint x="535" y="510" as="targetPoint" />
          </mxGeometry>
        </mxCell>
        <mxCell id="95jg-TMvlrJEj6wFgsVQ-114" value="Проголосовать" style="endArrow=classic;html=1;rounded=0;" edge="1" parent="1" target="95jg-TMvlrJEj6wFgsVQ-60">
          <mxGeometry width="50" height="50" relative="1" as="geometry">
            <mxPoint x="986" y="566" as="sourcePoint" />
            <mxPoint x="1110" y="570" as="targetPoint" />
          </mxGeometry>
        </mxCell>
        <mxCell id="95jg-TMvlrJEj6wFgsVQ-115" value="Успешно" style="endArrow=classic;html=1;rounded=0;dashed=1;" edge="1" parent="1">
          <mxGeometry width="50" height="50" relative="1" as="geometry">
            <mxPoint x="1125" y="588.4300000000001" as="sourcePoint" />
            <mxPoint x="985" y="588.4300000000001" as="targetPoint" />
          </mxGeometry>
        </mxCell>
        <mxCell id="95jg-TMvlrJEj6wFgsVQ-116" value="Добавить пользователя" style="endArrow=classic;html=1;rounded=0;" edge="1" parent="1">
          <mxGeometry width="50" height="50" relative="1" as="geometry">
            <mxPoint x="395" y="250" as="sourcePoint" />
            <mxPoint x="535" y="250" as="targetPoint" />
          </mxGeometry>
        </mxCell>
        <mxCell id="95jg-TMvlrJEj6wFgsVQ-117" value="Успешно" style="endArrow=classic;html=1;rounded=0;dashed=1;" edge="1" parent="1">
          <mxGeometry width="50" height="50" relative="1" as="geometry">
            <mxPoint x="535" y="270.0000000000001" as="sourcePoint" />
            <mxPoint x="395" y="270.0000000000001" as="targetPoint" />
          </mxGeometry>
        </mxCell>
        <mxCell id="95jg-TMvlrJEj6wFgsVQ-118" value="Успешно" style="endArrow=classic;html=1;rounded=0;dashed=1;" edge="1" parent="1" source="95jg-TMvlrJEj6wFgsVQ-34">
          <mxGeometry width="50" height="50" relative="1" as="geometry">
            <mxPoint x="525" y="530" as="sourcePoint" />
            <mxPoint x="385" y="530" as="targetPoint" />
          </mxGeometry>
        </mxCell>
        <mxCell id="95jg-TMvlrJEj6wFgsVQ-119" value="Получить статус" style="endArrow=classic;html=1;rounded=0;" edge="1" parent="1">
          <mxGeometry width="50" height="50" relative="1" as="geometry">
            <mxPoint x="986" y="497" as="sourcePoint" />
            <mxPoint x="1125" y="497" as="targetPoint" />
          </mxGeometry>
        </mxCell>
        <mxCell id="95jg-TMvlrJEj6wFgsVQ-120" value="Успешно" style="endArrow=classic;html=1;rounded=0;dashed=1;" edge="1" parent="1">
          <mxGeometry width="50" height="50" relative="1" as="geometry">
            <mxPoint x="1125" y="510.00000000000006" as="sourcePoint" />
            <mxPoint x="985" y="510.00000000000006" as="targetPoint" />
          </mxGeometry>
        </mxCell>
      </root>
    </mxGraphModel>
  </diagram>
</mxfile>
